<?xml version="1.0" standalone="no"?>
<!DOCTYPE svg PUBLIC "-//W3C//DTD SVG 20010904//EN"
 "http://www.w3.org/TR/2001/REC-SVG-20010904/DTD/svg10.dtd">
<svg version="1.0" xmlns="http://www.w3.org/2000/svg"
 width="70.000000pt" height="70.000000pt" viewBox="0 0 70.000000 70.000000"
 preserveAspectRatio="xMidYMid meet">

<g transform="translate(0.000000,70.000000) scale(0.100000,-0.100000)"
fill="#000000" stroke="none">
<path d="M204 575 c-8 -19 4 -36 23 -33 30 6 23 -18 -12 -36 -22 -12 -42 -35
-56 -62 -18 -38 -19 -49 -9 -79 6 -19 19 -39 27 -44 11 -6 17 -28 20 -67 6
-71 15 -89 56 -114 26 -16 51 -20 127 -20 110 0 159 18 174 63 17 47 -2 79
-67 111 -54 27 -58 31 -51 55 20 68 -2 128 -57 156 -24 13 -28 19 -19 30 6 7
20 11 30 8 15 -4 20 0 20 15 0 34 -17 35 -46 2 -21 -23 -36 -30 -64 -30 -32 0
-39 4 -50 30 -13 32 -37 40 -46 15z m116 -75 c0 -6 10 -8 24 -4 18 4 29 -2 51
-27 23 -28 26 -39 22 -73 -4 -25 -15 -49 -29 -61 -17 -15 -23 -30 -22 -60 1
-59 2 -62 27 -85 l22 -21 -24 -20 c-13 -10 -37 -19 -55 -19 -34 0 -103 30 -98
43 1 4 -4 15 -13 23 -21 22 -20 55 3 48 16 -5 16 -5 0 6 -10 6 -18 20 -18 30
0 17 7 20 48 21 l47 2 -43 6 c-99 17 -131 87 -71 156 24 27 38 36 56 32 13 -2
23 0 23 4 0 5 11 9 25 9 14 0 25 -5 25 -10z m145 -210 c3 -6 -1 -7 -9 -4 -18
7 -21 14 -7 14 6 0 13 -4 16 -10z m60 -30 c3 -6 -1 -7 -9 -4 -18 7 -21 14 -7
14 6 0 13 -4 16 -10z m-62 -100 c23 -1 -27 -30 -51 -30 -25 0 -25 0 -7 20 10
12 25 18 33 15 7 -3 19 -5 25 -5z m47 -10 c-20 -13 -33 -13 -25 0 3 6 14 10
23 10 15 0 15 -2 2 -10z"/>
<path d="M203 424 c-8 -21 13 -42 28 -27 13 13 5 43 -11 43 -6 0 -13 -7 -17
-16z"/>
<path d="M332 424 c-15 -16 -8 -34 13 -34 18 0 26 26 12 38 -8 7 -16 5 -25 -4z"/>
<path d="M255 390 c3 -5 15 -10 25 -10 10 0 22 5 25 10 4 6 -7 10 -25 10 -18
0 -29 -4 -25 -10z"/>
<path d="M278 233 c7 -3 16 -2 19 1 4 3 -2 6 -13 5 -11 0 -14 -3 -6 -6z"/>
<path d="M268 173 c12 -2 32 -2 45 0 12 2 2 4 -23 4 -25 0 -35 -2 -22 -4z"/>
</g>
</svg>
